# xmcd CD database file
# Copyright (C) 1996 Ti Kan
#
# Track frame offsets:
#  150
#  15392
#  29882
#  44145
#  58892
#  73365
#  88242
#  100487
#  114067
#  127265
#  139840
#  154760
#  169487
#  183775
#  198812
#  213100
#
# Disc length: 3034 seconds
#
# Revision: 2
# Processed by: cddbd v1.4PL0 Copyright (c) Steve Scherf et al.
# Submitted via: Gronk 1.4
#
DISCID=f20bd810
DTITLE=Curley Weaver - Georgia Guitar Wizard:  1928 - 1935
DYEAR=1900
DGENRE=blues
TTITLE0=Sweet Petunia
TTITLE1=No No Blues
TTITLE2=Baby Boogie Woogie
TTITLE3=Wild Cat Kitten
TTITLE4=No No Blues
TTITLE5=Leg Iron Blues
TTITLE6=Some Cold Rainy Day
TTITLE7=Tippin' Tom
TTITLE8=Birmingham Gambler
TTITLE9=Decatur Street 81
TTITLE10=Black Woman
TTITLE11=City Cell Blues
TTITLE12=Sometime Mama
TTITLE13=Oh Lawdy Mama
TTITLE14=Two Faced Woman
TTITLE15=Fried Pie Blues
EXTD=CD 3530-2\n\nSubmitted 6/23/97\n[Jmccoy@efn.org]
EXTT0=
EXTT1=
EXTT2=
EXTT3=
EXTT4=
EXTT5=
EXTT6=
EXTT7=
EXTT8=
EXTT9=
EXTT10=
EXTT11=
EXTT12=
EXTT13=
EXTT14=
EXTT15=
PLAYORDER=
